# xmcd
#
# Track frame offsets: 
#        150
#        9102
#        19446
#        32874
#
# Disc length: 538 seconds
#
# Revision: 0
# Processed by: cddbd v1.5.2PL0 Copyright (c) Steve Scherf et al.
# Submitted via: ExactAudioCopy v0.99pb5
#
DISCID=25021804
DTITLE=Chasen Hampton - Drugstore Girls (EP)
DYEAR=2010
DGENRE=Rock
TTITLE0=The Money
TTITLE1=Drugstore Girls
TTITLE2=Strugglin' and Stumblin'
TTITLE3=Soul Kitchen
EXTD=
EXTT0=
EXTT1=
EXTT2=
EXTT3=
PLAYORDER=
